<svg version="1.1" id="Calque_1" xmlns:serif="http://www.serif.com/" xmlns="http://www.w3.org/2000/svg" xmlns:xlink="http://www.w3.org/1999/xlink" x="0px" y="0px" style="enable-background:new 0 0 841.9 595.3;" xml:space="preserve" viewBox="197.17 96.18 362.22 414">
<style type="text/css">
	.st0{fill:#630B12;}
	.st1{fill:#E30613;}
	.st2{fill:#F39200;}
	.st3{fill:#FCEA10;}
</style><style class="darkreader darkreader--sync" media="screen"/>
<g>
	
		<ellipse transform="matrix(0.2588 -0.9659 0.9659 0.2588 -37.5709 621.9203)" class="st0" cx="386.5" cy="335.4" rx="36.8" ry="138.8"/>
	<path class="st1" d="M390.7,319.7c-74.1-19.8-138.4-20-143.6-0.4c-0.6,2.1-0.4,4.4,0.4,6.8c1,1.7,1.9,3.5,2.7,5.2   c12.9,19,61.1,43.3,121.5,59.4c51.8,13.9,98.9,18.1,124.2,12.7c6.3-4.1,12.7-8.1,19.2-11.8c0.1-0.2,0.1-0.3,0.2-0.5   C520.5,371.5,464.8,339.5,390.7,319.7z"/>
	<path class="st2" d="M384.9,341.3c-62.9-16.9-118.7-19.5-137.4-7.9c1.9,3.7,3.5,7.5,5.3,11.3c3.7,7.8,8,15.2,11.8,22.9   c0.8,1.6,1.6,3.2,2.4,4.8c22.5,14.3,57.9,28.9,98.9,39.9c38.6,10.4,74.6,15.4,100.9,15c2.7-1.8,5.3-3.6,7.9-5.4   c10.4-7.3,20.9-14.5,31.7-21.1C493.5,381.7,445.3,357.5,384.9,341.3z"/>
	<path class="st3" d="M381.2,355.2c-52.8-14.1-100.6-18.3-125.6-12.4c3.3,6.7,7.1,13.2,10.3,20c3.5,7.2,6.6,13.8,11.6,20.1   c2.8,3.5,5.5,7.2,8.2,10.8c1.9,1.4,3.7,2.8,5.7,4.1c5.7,3.7,12.1,6.2,17.6,10.1c0.6,0.4,1,0.9,1.4,1.4   c15.6,6.1,33.1,11.9,51.7,16.9c22.3,6,43.8,10.2,63,12.6c5.6-3.6,12.3-4.8,18.9-5c1.2,0,2.1,0.3,2.8,0.8   c10.3-4.6,19.8-11.1,29-17.6c5.8-4.1,11.7-8.2,17.6-12.1C473.7,387.9,431.7,368.7,381.2,355.2z"/>
</g>
<g>
	<path d="M392.7,228.8c0.5,9.8,1.8,13.1-3.5,13.9c-17.1,2.6-21,4.6-25.4,2.3c-26.6-14-31.3-15.9-25.4-20   c10.1-7.1,10.8-17.9,12.3-28.5c1-7.1-0.7-8.4,18.2-8.6c2.9,0,3.2,0.1,21.9,23.8C393,214.6,392.9,228.8,392.7,228.8z"/>
	<path d="M201.1,269.6c-7.6-2.4-5-2.4,15.2-32.5c2.2-3.3,2.1-3.8,28.8,1.6c5,1,6.3,2.7,23,18.9c5.3,5.1,2.8,4.9-26.2,22.5   C238.4,282.2,242.5,282.8,201.1,269.6z"/>
	<path d="M273.4,162.8c2.9,2.4,1.2-2.6,16.3,28.4c1.6,3.2-0.7,6-7.8,21.9c-1.9,4.3-3.3,3.7-23.8-4.4c-3-1.2-2.9-1.7-19.5-35.3   C235.4,166.9,238.4,168.3,273.4,162.8z"/>
	<path d="M221.1,227.7c-6.9,1.3-10.9-2.5-15.3-4.9c-1.5-0.8-1-4.4-1-4.5c-1.1-9.7,5.5-14.4,12.3-19c3.4-2.3,4.5-0.5,12.7,12   c1.2,1.9,0.9,3.8-2.6,14.1C226,229.3,222.4,227.3,221.1,227.7z"/>
	<path d="M313,226.8c-6.3,5.3-6.2,5.1-11.1-2.3c-5.9-8.9-5.8-8.9,0.1-17.9c1.4-2.1,3-2.8,5.3-1.6c11.2,6.1,7.9,3.9,11.2,8.4   C316,215,320.7,220.3,313,226.8z"/>
	<path d="M529.5,371.6c5.1-18.9-54.6-51.4-133.3-72.5c-78.7-21.1-146.6-22.8-151.6-3.9c-10.3,38.3,10.9,79.6,50.6,108.6l-49,34.3   c-5,3.5-6.2,10.3-2.7,15.3c1.5,2.2,3.7,3.7,6.2,4.3c3,0.8,6.4,0.3,9.2-1.6l56.6-39.6c10.5,5.7,21.9,10.7,34.1,14.6l-16.5,61.7   c-1.6,5.9,1.9,11.9,7.8,13.5c5.9,1.6,11.9-1.9,13.5-7.8l16.5-61.7c12.5,2.7,24.8,4.1,36.8,4.4l29.2,62.6c1.4,3.1,4.1,5.2,7.1,6   c2.4,0.6,5.1,0.5,7.5-0.7c5.5-2.6,7.9-9.1,5.3-14.6l-25.3-54.2C480.2,435.1,519.2,409.8,529.5,371.6z M516.6,368.3   c-0.7,2.7-3.4,4.7-7.7,6.2L482.5,339C505.4,350.3,518.6,360.9,516.6,368.3z M375.9,302.7l50,67.6c-8.4-1.6-17.1-3.4-26.1-5.5   l-50.2-67.7C358.2,298.7,366.9,300.6,375.9,302.7z M336.8,294.8l49.4,66.6c-2.1-0.5-4.2-1.1-6.3-1.6c-9.1-2.4-18-5-26.5-7.7   l-45.2-61C317,291.8,326.6,293.1,336.8,294.8z M257.3,298.8c0.7-2.6,3.3-4.6,7.5-6.1l26,35C268.3,316.6,255.4,306.1,257.3,298.8z    M274.5,290.7c6-0.7,13.4-0.9,21.9-0.5l42.3,57c-11.2-3.8-21.6-7.8-31-11.8L274.5,290.7z M438.8,372.6l-49.2-66.4   c1.4,0.4,2.9,0.8,4.3,1.1c9.1,2.4,17.8,5,26.3,7.6l45.2,61.1C457.3,375.3,448.4,374.1,438.8,372.6z M477.3,376.9l-42.3-57.1   c11,3.8,21.3,7.7,30.5,11.6l33.6,45.1C493.2,377.1,485.8,377.3,477.3,376.9z"/>
</g>
<path d="M541.1,219.9c18.7-14.7,17.6-32.4,7.2-47.8c-9.9-14.7-27.4-19.2-43.9-11c-1.7-2-3.3-3.8-4.9-5.7  c-29.1-34.3-81.3-74.1-118.4-53.6c-3,1.7-4.9,3.7-5.2,7.4c-0.3,4.6,0.6,9.4,1.9,13.8c13.7,47.2,93.6,171.4,136.1,211.7  c4.4,4.2,9.4,8,14.6,10.9c3.1,1.7,6.5,2.5,9.6,0.1c11.9-8.9,20-21.6,21.1-45.2C560.9,266.2,547.9,237.4,541.1,219.9z M514,173.1  c17.2-9.5,38.1,20.7,20.6,33C527.6,194.9,520.8,184,514,173.1z M545.5,312.1c-0.5,1.5-1.9,2.4-3.3,2.4c-0.4,0-0.7-0.1-1.1-0.2  c-1.8-0.6-2.8-2.6-2.2-4.4c6.6-19.6,1.1-40.7-4.2-61l-0.4-1.6c-0.5-1.9,0.6-3.8,2.5-4.3c1.9-0.5,3.8,0.6,4.3,2.5l0.4,1.6  C546.8,267.4,552.8,290.5,545.5,312.1z"/>
</svg>